<?xml version="1.0" encoding="UTF-8"?>
<svg id="Layer_2" xmlns="http://www.w3.org/2000/svg" version="1.1" viewBox="0 0 244.9 166.1">
  <!-- Generator: Adobe Illustrator 30.6.0, SVG Export Plug-In . SVG Version: 2.1.4 Build 109)  -->
  <defs>
    <style>
      .st0 {
        fill: #d0cad6;
      }
    </style>
  </defs>
  <path class="st0" d="M244.9,85.3c-21.1-.5-37.5,4.1-48.7,9.4,7.9-26.1,4.3-75.1,4.3-75.1-23.9,10.8-45.6,24.6-45.6,24.6C147.7,11.6,126.7,0,126.7,0c-28.3,6.5-29,49.2-29,49.2-17.4-28.3-63.7-26.8-63.7-26.8-6.5,28.3,12.3,62.3,12.3,62.3-31.8-3.6-46.3,0-46.3,0,18.5,47.1,92.5,72.6,103.5,76.2s2,.7,3,1.1c22.5,8,48.2,2,48.2,2,94.8-17.4,90.1-78.6,90.1-78.6Z"/>
</svg>