<?xml version="1.0" encoding="UTF-8"?>
<svg id="Layer_2" xmlns="http://www.w3.org/2000/svg" version="1.1" viewBox="0 0 249 170">
  <!-- Generator: Adobe Illustrator 30.6.0, SVG Export Plug-In . SVG Version: 2.1.4 Build 109)  -->
  <defs>
    <style>
      .st0 {
        fill: none;
        stroke: #d0cad6;
        stroke-linecap: round;
        stroke-linejoin: round;
        stroke-width: 4px;
      }
    </style>
  </defs>
  <g id="lily_closed">
    <path class="st0" d="M70.1,150.4S13.6,122.2,2,86.7c0,0,14.5-3.6,46.3,0,0,0-18.8-34-12.3-62.3,0,0,46.3-1.5,63.7,26.8,0,0,.7-42.7,29-49.2,0,0,21,11.6,28.2,44.2,0,0,21.7-13.8,45.6-24.6,0,0,6.9,93.9-19.3,91-8.8-1,15.2-26.4,63.7-25.3,0,0,4.7,61.2-90.1,78.6,0,0-114.1,26.6-71.9-106.8,0,0,52.5,37.8,41.1,49.9-6.4,6.8-19.7-41.8,33.8-48.3,0,0,20.6,20.5,5.1,75.5s-43.1-70.6-81.9,4.6"/>
  </g>
</svg>